# xmcd
#
# Track frame offsets:
#	150
#	36412
#	44452
#	74253
#	93464
#
# Disc length: 1468 seconds
#
# Revision: 1
# Processed by: cddbd v1.5.2PL0 Copyright (c) Steve Scherf et al.
# Submitted via: audiograbber 1.83.01
#
DISCID=4205ba05
DTITLE=Grateful Dead - 72-12-12 Winterland Arena, San Francisco CA
DYEAR=1900
DGENRE=
TTITLE0=Sugar Magnolia
TTITLE1=Bobby's Bee Story
TTITLE2=GDTRFB
TTITLE3=One More Saturday Night
TTITLE4=Johnny B Goode
EXTD=
EXTT0=
EXTT1=
EXTT2=
EXTT3=
EXTT4=
PLAYORDER=
